ply
format ascii 1.0
comment Created by Blender 2.83.4 - www.blender.org, source file: ''
element vertex 41
property float x
property float y
property float z
property float nx
property float ny
property float nz
element face 64
property list uchar uint vertex_indices
end_header
0.500000 0.500000 0.000000 0.000000 0.000000 1.000000
1.000000 0.500000 0.000000 0.000000 0.000000 1.000000
0.750000 0.750000 0.000000 0.000000 0.000000 1.000000
-0.500000 -0.500000 0.000000 0.000000 0.000000 1.000000
0.000000 -0.500000 0.000000 0.000000 0.000000 1.000000
-0.250000 -0.250000 0.000000 0.000000 0.000000 1.000000
0.500000 -0.500000 0.000000 0.000000 0.000000 1.000000
1.000000 -0.500000 0.000000 0.000000 0.000000 1.000000
0.750000 -0.250000 0.000000 0.000000 0.000000 1.000000
0.250000 -0.250000 0.000000 0.000000 0.000000 1.000000
0.000000 -1.000000 0.000000 0.000000 0.000000 1.000000
0.500000 -1.000000 0.000000 0.000000 0.000000 1.000000
0.250000 -0.750000 0.000000 0.000000 0.000000 1.000000
1.000000 -1.000000 0.000000 0.000000 0.000000 1.000000
0.750000 -0.750000 0.000000 0.000000 0.000000 1.000000
-1.000000 -0.500000 0.000000 0.000000 0.000000 1.000000
-0.750000 -0.250000 0.000000 0.000000 0.000000 1.000000
-1.000000 -1.000000 0.000000 0.000000 0.000000 1.000000
-0.500000 -1.000000 0.000000 0.000000 0.000000 1.000000
-0.750000 -0.750000 0.000000 0.000000 0.000000 1.000000
-0.250000 -0.750000 0.000000 0.000000 0.000000 1.000000
0.000000 0.500000 0.000000 0.000000 0.000000 1.000000
0.250000 0.750000 0.000000 0.000000 0.000000 1.000000
0.000000 0.000000 0.000000 0.000000 0.000000 1.000000
0.500000 0.000000 0.000000 0.000000 0.000000 1.000000
0.250000 0.250000 0.000000 0.000000 0.000000 1.000000
1.000000 0.000000 0.000000 0.000000 0.000000 1.000000
0.750000 0.250000 0.000000 0.000000 0.000000 1.000000
-1.000000 0.500000 0.000000 0.000000 0.000000 1.000000
-0.500000 0.500000 0.000000 0.000000 0.000000 1.000000
-0.750000 0.750000 0.000000 0.000000 0.000000 1.000000
-1.000000 0.000000 0.000000 0.000000 0.000000 1.000000
-0.500000 0.000000 0.000000 0.000000 0.000000 1.000000
-0.750000 0.250000 0.000000 0.000000 0.000000 1.000000
-0.250000 0.250000 0.000000 0.000000 0.000000 1.000000
-0.250000 0.750000 0.000000 0.000000 0.000000 1.000000
0.000000 1.000000 0.000000 -0.000000 0.000000 1.000000
-0.500000 1.000000 0.000000 0.000000 -0.000000 1.000000
1.000000 1.000000 0.000000 -0.000000 0.000000 1.000000
0.500000 1.000000 0.000000 0.000000 -0.000000 1.000000
-1.000000 1.000000 0.000000 0.000000 -0.000000 1.000000
3 0 1 2
3 3 4 5
3 6 7 8
3 4 6 9
3 10 11 12
3 11 13 14
3 15 3 16
3 17 18 19
3 18 10 20
3 21 0 22
3 23 24 25
3 24 26 27
3 28 29 30
3 31 32 33
3 32 23 34
3 29 21 35
3 21 36 35
3 36 37 35
3 37 29 35
3 1 38 2
3 38 39 2
3 39 0 2
3 4 23 5
3 23 32 5
3 32 3 5
3 7 26 8
3 26 24 8
3 24 6 8
3 6 24 9
3 24 23 9
3 23 4 9
3 11 6 12
3 6 4 12
3 4 10 12
3 13 7 14
3 7 6 14
3 6 11 14
3 3 32 16
3 32 31 16
3 31 15 16
3 18 3 19
3 3 15 19
3 15 17 19
3 10 4 20
3 4 3 20
3 3 18 20
3 0 39 22
3 39 36 22
3 36 21 22
3 24 0 25
3 0 21 25
3 21 23 25
3 26 1 27
3 1 0 27
3 0 24 27
3 29 37 30
3 37 40 30
3 40 28 30
3 32 29 33
3 29 28 33
3 28 31 33
3 23 21 34
3 21 29 34
3 29 32 34
